<svg xmlns="http://www.w3.org/2000/svg" width="144" height="144" viewBox="0 0 144 144"><g transform="translate(-12016 7372)"><rect width="144" height="144" transform="translate(12160 -7372) rotate(90)" fill="#1742f4"/><g transform="translate(1233 1012)"><path d="M0,30.071,17.621,0" transform="translate(10830.927 -8315.98)" fill="none" stroke="#fff" stroke-linecap="round" stroke-width="12" opacity="0.3"/><line y2="51.607" transform="translate(10851.754 -8337.517)" fill="none" stroke="#f5f5f5" stroke-linecap="round" stroke-width="15"/><line x2="28.554" y2="28.555" transform="translate(10819.994 -8336.001)" fill="none" stroke="#fff" stroke-linecap="round" stroke-width="15"/><path d="M12.306.954c4.314,0,6.857-2.634,6.857-7.129v-17.8h11.67l10.9,19.753c2.225,4,3.724,5.177,6.993,5.177,4,0,6.9-2.634,6.9-6.267a8.418,8.418,0,0,0-1.453-4.723L44.729-26.383c7.22-3.088,11.262-10.081,11.262-18.255,0-12.942-8.628-20.889-23.7-20.889H12.306c-4.314,0-6.857,2.634-6.857,7.129V-6.176C5.449-1.68,8.038.954,12.306.954Zm6.857-34.875V-54.81h11.67c6.812,0,11.08,4.087,11.08,10.444,0,6.494-4.042,10.444-10.944,10.444Z" transform="translate(10839.271 -8279.713)" fill="#fff"/><rect width="26" height="23" transform="translate(10855.271 -8335.713)" fill="#fff"/><rect width="6" height="6" rx="3" transform="translate(10814.737 -8339.713)" fill="#1847fa"/><path d="M0,35.67,16.943,0" transform="matrix(1, -0.017, 0.017, 1, 10868.271, -8321.428)" fill="none" stroke="#fff" stroke-linecap="round" stroke-width="12" opacity="0.3"/><path d="M4.575-.442s1.268,4.688,4.072,4.65S13.339.388,13.339.388L19.308,17H0Z" transform="matrix(0.839, -0.545, 0.545, 0.839, 10832.895, -8327.248)" fill="#fff"/></g></g></svg>